<?xml version="1.0" encoding="UTF-8"?>
<svg width="24px" height="24px" version="1.1" viewBox="0 0 24 24" xmlns="http://www.w3.org/2000/svg" xmlns:cc="http://creativecommons.org/ns#" xmlns:dc="http://purl.org/dc/elements/1.1/" xmlns:rdf="http://www.w3.org/1999/02/22-rdf-syntax-ns#">
<metadata>
<rdf:RDF>
<cc:Work rdf:about="">
<dc:format>image/svg+xml</dc:format>
<dc:type rdf:resource="http://purl.org/dc/dcmitype/StillImage"/>
<dc:title/>
</cc:Work>
</rdf:RDF>
</metadata>
<g fill="none" fill-rule="evenodd">
<g transform="translate(1 3)" fill="#fff" fill-rule="nonzero">
<path d="m21.08 2h-16.08v-2h16.08c0.52082 0.041797 0.92167 0.47751 0.92 1 0.0016745 0.52249-0.39918 0.9582-0.92 1z"/>
<path d="m21.08 10h-16.08v-2h16.08c0.52082 0.041797 0.92167 0.47751 0.92 1 0.0016745 0.52249-0.39918 0.9582-0.92 1z"/>
<path d="m21.08 18h-16.08v-2h16.08c0.52082 0.041797 0.92167 0.47751 0.92 1 0.0016745 0.52249-0.39918 0.9582-0.92 1z"/>
<circle cx="1" cy="1" r="1"/>
<circle cx="1" cy="9" r="1"/>
<circle cx="1" cy="17" r="1"/>
</g>
</g>
</svg>
